<svg
    width="40"
    height="39"
    viewBox="0 0 40 39"
    fill="none"
    xmlns="http://www.w3.org/2000/svg"
>
    <path
    fillRule="evenodd"
    clipRule="evenodd"
    d="M33.3916 39H6.60839C2.97302 39 0 36.1 0 32.5568V6.44318C0 2.89869 2.97302 0 6.60839 0H33.3916C37.0256 0 40 2.89869 40 6.44318V32.5568C40 36.1 37.0256 39 33.3916 39Z"
    fill="url(#paint0_linear_2605_1352)"
    ></path>
    <path
    fillRule="evenodd"
    clipRule="evenodd"
    d="M33.6372 19.159C33.6372 26.3121 27.6432 32.1122 20.249 32.1122C17.9013 32.1122 15.6949 31.5279 13.7764 30.5011L6.36304 32.7968L8.7793 25.8469C7.5602 23.8948 6.85808 21.6044 6.85808 19.1577C6.85808 12.0032 12.8521 6.20312 20.2476 6.20312C27.6432 6.20446 33.6372 12.0045 33.6372 19.159ZM20.249 8.26751C14.0411 8.26751 8.99186 13.1517 8.99186 19.159C8.99186 21.5403 9.78722 23.7477 11.1366 25.5447L9.731 29.5892L14.0561 28.2495C15.8334 29.386 17.963 30.0505 20.2504 30.0505C26.457 30.0505 31.5062 25.165 31.5062 19.1603C31.5048 13.153 26.4542 8.26751 20.249 8.26751ZM27.0096 22.1419C26.9273 22.0096 26.7079 21.9293 26.3802 21.7716C26.0511 21.6125 24.437 20.8437 24.1367 20.7394C23.8364 20.6338 23.6156 20.5803 23.3989 20.8971C23.1795 21.2154 22.5515 21.9307 22.3581 22.1419C22.1675 22.3545 21.9769 22.3799 21.6478 22.2208C21.3186 22.063 20.2614 21.7261 19.008 20.6458C18.033 19.8035 17.3747 18.7646 17.1814 18.4464C16.9908 18.1295 17.1622 17.957 17.3254 17.7992C17.4735 17.6562 17.6545 17.4289 17.8177 17.2444C17.9822 17.0585 18.0371 16.9248 18.1468 16.7136C18.2565 16.501 18.2016 16.3165 18.1194 16.1587C18.0384 16.0009 17.3816 14.4379 17.1073 13.8015C16.8358 13.1664 16.5615 13.1905 16.3696 13.1905C16.1789 13.1905 15.8238 13.2453 15.8238 13.2453C15.8238 13.2453 15.1655 13.3242 14.8652 13.6424C14.5649 13.9593 13.7174 14.7281 13.7174 16.2897C13.7174 17.8514 14.8926 19.3622 15.0558 19.5735C15.2204 19.7861 17.3254 23.0966 20.6631 24.3681C23.9996 25.6396 23.9996 25.2144 24.6016 25.161C25.2022 25.1088 26.5434 24.3935 26.8163 23.6514C27.0905 22.9094 27.0905 22.273 27.0096 22.1419Z"
    fill="white"
    ></path>
    <defs>
    <linearGradient
        id="paint0_linear_2605_1352"
        x1="19.9999"
        y1="0"
        x2="19.9999"
        y2="38.9999"
        gradientUnits="userSpaceOnUse"
    >
        <stop stopColor="#32F034"></stop>
        <stop offset="1" stopColor="#0A9D46"></stop>
    </linearGradient>
    </defs>
</svg>